<?xml version="1.0" encoding="UTF-8"?>
<svg id="Livello_1" data-name="Livello 1" xmlns="http://www.w3.org/2000/svg" viewBox="0 0 445.81 382.17">
  <defs>
    <style>
      .cls-1 {
        fill: #9f4f67;
      }

      .cls-2 {
        fill: #fce2ea;
      }

      .cls-3 {
        fill: none;
        stroke: #9f4f67;
        stroke-linecap: round;
        stroke-miterlimit: 10;
        stroke-width: 18px;
      }
    </style>
  </defs>
  <g>
    <path class="cls-2" d="M394.04,328.36c0,.73-.01,1.46-.04,2.18-4.19.18-8.51.05-12.94-.34,4.45-.42,8.78-1.04,12.98-1.84Z"/>
    <g>
      <path class="cls-1" d="M429.59,213.6c-4.16-3.77-8.7-7.37-13.59-10.77-2.68-1.87-5.48-3.67-8.38-5.42,1.9-.99,3.77-2.01,5.61-3.05h.01c1.02-.57,2.02-1.15,3.01-1.73,9.92-5.84,18.95-12.36,26.93-19.31.89-.77,1.78-1.54,2.63-2.34-3.9-4.3-8.4-8.25-13.4-11.8-.46-.34-.95-.65-1.42-.96-6.07-4.02-12.89-7.6-20.29-10.64-.7-.3-1.41-.57-2.13-.85-.04-.03-.08-.04-.14-.05-2.13-.79-4.3-1.52-6.52-2.2-14.19-4.32-30.06-6.27-46.67-5.26-6.88.42-13.57,1.33-20,2.68-3.55.75-7.02,1.63-10.41,2.63-15.8,4.68-29.75,12.09-40.79,21.34-4.34,3.63-8.21,7.55-11.59,11.7-2.59,3.17-4.87,6.48-6.83,9.89-.35.6-.68,1.21-1,1.82,1.65-.49,3.35-.92,5.08-1.3,11.7-2.63,24.99-2.97,38.98-.98,16.64,2.37,34.27,8.05,51.42,17.18,4.35,2.32,8.54,4.78,12.54,7.39,14.26,9.23,26.25,20.1,35.47,31.64.3.38.6.75.88,1.12.68.85,1.33,1.71,1.94,2.56,11.68-3.44,21.82-8.67,29.69-15.57.99-.87,1.95-1.76,2.87-2.68-2.41-3.18-5.08-6.32-8.01-9.35-1.87-1.92-3.82-3.82-5.88-5.68Z"/>
      <path class="cls-2" d="M408.1,243.19c-9.22-11.55-21.21-22.42-35.47-31.64-4-2.6-8.19-5.07-12.54-7.39-17.14-9.13-34.78-14.81-51.42-17.18-13.99-1.99-27.28-1.65-38.98.98-1.73.38-3.43.81-5.08,1.3.33-.61.65-1.22,1-1.82,1.97-3.42,4.24-6.72,6.83-9.89,3.37-4.15,7.25-8.06,11.59-11.7,11.05-9.26,24.99-16.67,40.79-21.34,3.39-1,6.86-1.88,10.41-2.63,6.44-1.36,13.12-2.26,20-2.68,16.62-1.02,32.48.94,46.67,5.26.04-.04.08-.08.12-.12,2.11-1.9,4.13-3.85,6.06-5.83.28-.28.57-.57.84-.85,3.75-3.92,7.14-7.94,10.14-12.06,6.41-8.78,11-17.92,13.5-27.02-13.67-5.05-30.3-6.33-48.15-3.82-.7.09-1.41.2-2.11.31.34-.51.66-1.04.99-1.57,9.28-15.18,14.24-30.79,13.99-45.2-19.14,1.9-39.78,7.66-60.05,17.48-8.44,4.09-16.41,8.77-23.81,13.88-3.37,1.97-6.64,4.31-9.76,6.99-1.03.88-2.05,1.8-3.05,2.76-4.59,4.36-8.86,9.49-12.75,15.25-8.19,12.09-14.68,26.98-18.88,43.72-.45,1.79-.87,3.6-1.26,5.43-1.14,5.29-2.06,10.75-2.72,16.34-.05.37-.09.75-.14,1.12-.35,3.04-.62,6.11-.83,9.23-.14,2.2-.24,4.42-.31,6.67-.03.79-.04,1.57-.05,2.37v.51c-.01.35-.01.72-.01,1.07-.01.57-.01,1.14-.01,1.71,0,2.74.05,5.46.18,8.16.09,2.47.24,4.92.45,7.33.11,1.41.24,2.81.39,4.2,1.9,18.31,6.4,35.24,12.89,49.79,1.1,2.47,2.25,4.87,3.47,7.18,2.1,4.04,4.36,7.86,6.78,11.42,6.51,9.66,14.11,17.54,22.46,23.12h-.01c.41.28.83.53,1.24.79.28.18.56.35.83.52,23.4,14.74,47.37,22.98,68.75,24.84,4.45-.42,8.78-1.04,12.98-1.84-.04-11.83-3.54-24.45-10.06-36.94-.54-1.08-1.14-2.17-1.75-3.25-.12-.23-.26-.46-.39-.69.68.12,1.37.24,2.05.35.94.16,1.86.3,2.79.43,15.21,2.2,29.45,1.37,41.56-2.57-.7-4.58-1.92-9.23-3.63-13.9-.69-1.87-1.45-3.74-2.29-5.61-2.91-6.49-6.74-12.97-11.41-19.28-.61-.85-1.26-1.71-1.94-2.56-.28-.38-.58-.75-.88-1.12Z"/>
    </g>
  </g>
  <path class="cls-3" d="M9,41.06C124.57-2.97,268.57-.68,371.75,41.97"/>
  <path class="cls-3" d="M9,191.41c1.3-.02,80.02-.65,178.87-.65"/>
  <path class="cls-3" d="M9,341.11c115.57,44.03,259.57,41.73,362.75-.92"/>
</svg>